<svg width="36" height="36" viewBox="0 0 36 36" fill="none" xmlns="http://www.w3.org/2000/svg">
<g clip-path="url(#clip0_255_13388)">
<path d="M24.9697 31.4508C25.9303 30.3292 26.7716 28.9934 27.4508 27.4738H29.8221C28.5043 29.1156 26.8531 30.4732 24.9697 31.4508ZM6.17674 27.4738H8.548C9.22632 28.9934 10.0685 30.3292 11.0292 31.4508C9.14484 30.4732 7.49453 29.1156 6.17674 27.4738ZM11.0292 4.54842C10.0685 5.67011 9.22632 7.00589 8.548 8.52642H6.17674C7.49453 6.88368 9.14579 5.52705 11.0292 4.54842ZM29.8221 8.52642H27.4508C26.7716 7.00589 25.9303 5.67011 24.9697 4.54842C26.8531 5.52611 28.5043 6.88368 29.8221 8.52642ZM29.3361 17.0527C29.2489 14.6786 28.8416 12.4381 28.1727 10.4212H31.1124C32.2559 12.3936 32.9607 14.6455 33.1095 17.0527H29.3361ZM29.3361 18.9475H33.1095C32.9607 21.3547 32.2559 23.6057 31.1124 25.5791H28.1727C28.8416 23.5621 29.2489 21.3216 29.3361 18.9475ZM18.9473 25.5791V18.9475H27.4433C27.3504 21.3547 26.9099 23.6057 26.1956 25.5791H18.9473ZM18.9473 33.0813V27.4738H25.3884C23.8385 30.5651 21.5497 32.6673 18.9473 33.0813ZM17.0525 27.4738V33.0813C14.4501 32.6673 12.1603 30.5651 10.6104 27.4738H17.0525ZM8.55558 18.9475H17.0525V25.5791H9.80326C9.08895 23.6057 8.64842 21.3547 8.55558 18.9475ZM6.66274 17.0527H2.88937C3.03906 14.6455 3.74295 12.3936 4.88548 10.4212H7.82706C7.15727 12.4381 6.75085 14.6786 6.66274 17.0527ZM17.0525 10.4212V17.0527H8.55558C8.64842 14.6455 9.08895 12.3945 9.80326 10.4212H17.0525ZM17.0525 2.918V8.52642H10.6104C12.1613 5.43421 14.4501 3.332 17.0525 2.918ZM26.1956 10.4212C26.9099 12.3945 27.3504 14.6455 27.4433 17.0527H18.9473V10.4212H26.1956ZM18.9473 8.52642V2.918C21.5497 3.332 23.8376 5.43421 25.3875 8.52642H18.9473ZM2.88937 18.9475H6.66274C6.7499 21.3216 7.15727 23.5621 7.82706 25.5791H4.88548C3.74295 23.6057 3.03906 21.3547 2.88937 18.9475ZM17.9999 0.947472C8.58211 0.947472 0.947266 8.58231 0.947266 18.0001C0.947266 27.4179 8.58211 35.0527 17.9999 35.0527C27.4177 35.0527 35.0525 27.4179 35.0525 18.0001C35.0525 8.58231 27.4177 0.947472 17.9999 0.947472Z" fill="#97AC9F"></path>
</g>
<!-- <defs>
<clipPath id="clip0_255_13388">
<rect width="36" height="36" fill="white"></rect>
</clipPath>
</defs> -->
</svg>