<svg width="16" height="11" viewBox="0 0 16 11" fill="none" xmlns="http://www.w3.org/2000/svg">
<path d="M0 5.19995V5.59995C0 5.69995 0.1 5.69995 0.1 5.79995L5.1 10.8C5.3 11 5.6 11 5.8 10.8C6 10.6 6 10.3 5.8 10.1L1.7 5.89995L15.5 5.89995C15.8 5.89995 16 5.69995 16 5.39995C16 5.09995 15.8 4.89995 15.5 4.89995L1.7 4.89995L5.8 0.799951C6 0.599951 6 0.299951 5.8 0.0999508C5.7 -4.92111e-05 5.6 -4.86374e-05 5.4 -4.86374e-05C5.2 -4.86374e-05 5.1 -4.92111e-05 5 0.0999508L0 5.09995C0.1 5.09995 0.1 5.09995 0 5.19995Z" fill="black"/>
</svg>
