<svg version="1.1" id="Layer_1" xmlns="http://www.w3.org/2000/svg" xmlns:xlink="http://www.w3.org/1999/xlink" x="0px" y="0px" viewBox="0 0 39.7 59.6" style="enable-background:new 0 0 39.7 59.6;" xml:space="preserve">
<style type="text/css">
	.st0{fill:#FFFFFF;}
</style>
<g>
<polygon class="st0" points="39.7,0 38.9,0 0.7,0 0,0 0,0.7 0,58.9 0,59.6 0.7,59.6 39.7,59.6 	"></polygon>
<g>
<g>
<path d="M38.9,0.7V59H0.7V0.7H38.9"></path>
</g>
<rect x="2.5" y="2.8" class="st0" width="34.4" height="9.7"></rect>
<rect x="2.5" y="14.5" class="st0" width="34.4" height="35.5"></rect>
<g>
<polygon class="st0" points="2.5,56.8 2.5,52.1 9.4,52.1 9.4,53.2 5.3,53.2 5.3,53.9 8.8,53.9 8.8,55 5.3,55 5.3,55.7 9.6,55.7 
				9.6,56.8 			"></polygon>
<path class="st0" d="M15.4,53.5c0-0.2-0.2-0.3-0.4-0.3c-0.2-0.1-0.4-0.1-0.7-0.1c-0.6,0-0.9,0.1-0.9,0.3c0,0.7,4.9,0.3,4.9,2
				c0,1.1-1.6,1.6-4,1.6c-2.2,0-3.7-0.7-3.8-1.6h2.7c0.1,0.2,0.2,0.3,0.5,0.4c0.2,0.1,0.5,0.1,0.8,0.1c0.7,0,1.2-0.1,1.2-0.3
				c0-0.7-4.9-0.2-4.9-2c0-1,1.6-1.5,3.7-1.5c2.3,0,3.4,0.7,3.6,1.5L15.4,53.5L15.4,53.5z"></path>
<path class="st0" d="M22.5,54.2h1.1c0.9,0,1.3-0.1,1.3-0.4c0-0.3-0.5-0.5-1.1-0.5h-1.3V54.2z M22.5,55.2v1.6h-2.8v-4.7h4
				c2.8,0,3.7,0.4,3.7,1.3c0,0.5-0.4,1-1.4,1.2c0.9,0.2,1.4,0.3,1.4,1.2c0,0.6,0,0.8,0.3,0.8v0.1h-2.8c-0.1-0.1-0.1-0.4-0.1-0.8
				c0-0.6-0.2-0.8-1.5-0.8h-0.8V55.2z"></path>
<path class="st0" d="M31.9,53.2V54h1.2c0.6,0,1-0.1,1-0.4c0-0.4-0.5-0.4-1.1-0.4H31.9z M31.9,54.9v0.8h1.2c0.7,0,1.2-0.1,1.2-0.4
				c0-0.4-0.6-0.4-1.5-0.4H31.9z M29.1,56.8v-4.7h4c1.9,0,3.4,0.3,3.4,1.2c0,0.5-0.6,0.8-1.1,1c0.9,0.1,1.4,0.6,1.4,1.1
				c0,1.1-1.4,1.4-3.6,1.4H29.1z"></path>
</g>
<g>
<polygon points="3.7,23.3 14.3,20.5 20.3,34.6 20.4,34.6 18.5,19.3 29.1,16.5 35.7,41.2 29.2,43 24.5,25.3 24.5,25.3 26.5,43.7 
				19.5,45.6 12.1,28.6 12,28.6 16.7,46.3 10.3,48 			"></polygon>
</g>
<g>
<path d="M3.4,10.3V4.8H5l0.7,3.7l0,0l0.8-3.7H8v5.5H7.1V6.1l0,0l-0.9,4.2H5.3L4.5,6.1l0,0v4.2C4.5,10.3,3.4,10.3,3.4,10.3z"></path>
<path d="M8.4,10.3l1.3-5.5H11l1.3,5.5h-1L11,9.1H9.7l-0.3,1.2H8.4z M10.3,5.9L10.3,5.9L9.8,8.3h0.9L10.3,5.9z"></path>
<path d="M15,4.8v0.9h-1.1v4.6h-1V5.7h-1.1V4.8H15z"></path>
<path d="M18.6,4.8v3.9c0,0.2,0,0.4-0.1,0.6s-0.1,0.4-0.3,0.5c-0.1,0.2-0.3,0.3-0.5,0.4s-0.4,0.1-0.7,0.1c-0.5,0-0.9-0.2-1.2-0.5
				c-0.3-0.3-0.4-0.7-0.4-1.2V4.7h1v3.8c0,0.3,0.1,0.6,0.2,0.7c0.1,0.1,0.3,0.2,0.4,0.2c0.2,0,0.4-0.1,0.5-0.2
				c0.1-0.2,0.1-0.4,0.1-0.7V4.7h1V4.8z"></path>
<path d="M20.3,10.3h-1V4.8h1.8c0.3,0,0.6,0.1,0.8,0.4c0.2,0.2,0.3,0.6,0.3,1.1c0,0.3-0.1,0.6-0.2,0.9c-0.1,0.2-0.3,0.4-0.7,0.5
				l0,0c0.1,0,0.1,0,0.2,0c0.1,0,0.2,0.1,0.3,0.1C21.9,7.9,22,8,22,8.1c0.1,0.1,0.1,0.3,0.1,0.6c0,0.1,0,0.2,0,0.4
				c0,0.2,0,0.3,0,0.5s0,0.3,0,0.5c0,0.1,0,0.2,0.1,0.3h-0.9c-0.1-0.2-0.1-0.3-0.1-0.5s0-0.4,0-0.5c0-0.2,0-0.3,0-0.5
				c0-0.1,0-0.3-0.1-0.4c0-0.1-0.1-0.2-0.2-0.3c-0.1-0.1-0.2-0.1-0.4-0.1h-0.2C20.3,8.1,20.3,10.3,20.3,10.3z M20.3,7.2h0.4
				c0.1,0,0.2,0,0.2-0.1C21,7,21,7,21.1,6.9c0-0.1,0.1-0.2,0.1-0.3c0-0.1,0-0.2,0-0.3c0-0.3,0-0.4-0.1-0.6c-0.1,0-0.2,0-0.3,0h-0.4
				L20.3,7.2L20.3,7.2z"></path>
<path d="M23,10.3V4.8h2.5v0.9h-1.6V7h1.4v0.8h-1.4v1.6h1.6v0.8H23V10.3z"></path>
<path d="M27.5,5.7c0.2-0.1,0.3-0.2,0.5-0.4c0.1-0.1,0.3-0.3,0.4-0.5h0.9v5.5h-1V6.1c-0.1,0.1-0.2,0.2-0.4,0.3
				c-0.1,0.1-0.3,0.2-0.4,0.3V5.7z"></path>
<path d="M32.6,5.9l-1.1,4.5h-1l1.2-4.7h-1.5V4.9h2.4V5.9z"></path>
<path d="M34.1,5.9h0.7v1.5h1.1v0.8h-1.1v1.5h-0.7V8.2H33V7.4h1.1V5.9z"></path>
</g>
</g>
</g>
</svg>