<svg width="28px" height="32px" viewBox="0 0 28 32" version="1.1" xmlns="http://www.w3.org/2000/svg" xmlns:xlink="http://www.w3.org/1999/xlink">
<title>discord</title>
<g id="Symbols" stroke="none" stroke-width="1" fill="none" fill-rule="evenodd">
<g id="Comp/SoMe-Copy" transform="translate(-827.000000, -55.000000)" fill="#444" fill-rule="nonzero">
<g id="Group-16" transform="translate(803.000000, 33.000000)">
<g id="discord" transform="translate(24.000000, 22.000000)">
<path d="M11.1000436,13.424 C10.175645,13.5000492 9.46415318,14.2724785 9.46415318,15.2 C9.46415318,16.1275215 10.175645,16.8999508 11.1000436,16.976 C11.5531904,16.959396 11.9809242,16.7624429 12.2881475,16.428929 C12.5953709,16.0954152 12.7566196,15.6529838 12.7360436,15.2 C12.7582656,14.7465913 12.5975779,14.3032345 12.2900143,13.9693513 C11.9824508,13.6354682 11.5537487,13.4389984 11.1000436,13.424 L11.1000436,13.424 Z M16.9400436,13.424 C16.208437,13.363857 15.514808,13.7585009 15.1927279,14.4181446 C14.8706478,15.0777883 14.9860274,15.8674418 15.4833797,16.4073549 C15.980732,16.9472679 16.7582785,17.1269523 17.4420914,16.8599964 C18.1259042,16.5930406 18.5760473,15.9340745 18.5760436,15.2 C18.5966296,14.7476838 18.4359237,14.3058436 18.1295584,13.9724459 C17.823193,13.6390483 17.3964842,13.4416432 16.9440436,13.424 L16.9400436,13.424 Z" id="Shape"></path>
<path d="M24.7200436,0 L3.28004363,0 C2.40731583,0.00211760983 1.57123359,0.351114276 0.955998602,0.970100701 C0.34076361,1.58908713 -0.00314408818,2.42727546 2.16639608e-05,3.3 L2.16639608e-05,24.928 C-0.00314408818,25.8007245 0.34076361,26.6389129 0.955998602,27.2578993 C1.57123359,27.8768857 2.40731583,28.2258824 3.28004363,28.228 L21.4240436,28.228 L20.5760436,25.268 L22.6240436,27.168 L24.5600436,28.96 L28.0000656,32 L28.0000656,3.3 C28.0032313,2.42727546 27.6593236,1.58908713 27.0440887,0.970100701 C26.4288537,0.351114276 25.5927714,0.00211760983 24.7200436,0 Z M18.5440436,20.9 C18.5440436,20.9 17.9680436,20.212 17.4880436,19.6 C18.6486701,19.3288121 19.6759391,18.6557738 20.3880436,17.7 C19.8123287,18.0831447 19.1950591,18.3998309 18.5480436,18.644 C17.8037155,18.9617168 17.0252441,19.1925738 16.2280436,19.332 C14.8577242,19.5842992 13.452374,19.5788731 12.0840436,19.316 C11.2807164,19.1588178 10.4934403,18.9285262 9.73204363,18.628 C9.0891014,18.3787144 8.47489002,18.0608801 7.90004363,17.68 C8.58475692,18.6164878 9.57516219,19.2843039 10.7000436,19.568 C10.2200436,20.176 9.62804363,20.896 9.62804363,20.896 C7.69797842,20.9481201 5.8685175,20.0363888 4.74804363,18.464 C4.7987296,15.2206516 5.58516461,12.0311447 7.04804363,9.136 C8.33770497,8.12320432 9.91019179,7.53614258 11.5480436,7.456 L11.7080436,7.648 C10.1684194,8.02901954 8.73168161,8.74465702 7.50004363,9.744 C7.50004363,9.744 7.85204363,9.552 8.44404363,9.28 C9.59539254,8.75460373 10.8225203,8.41440991 12.0800436,8.272 C12.1696099,8.25346063 12.2606202,8.24275355 12.3520436,8.24 C13.4242335,8.10030504 14.509298,8.08956183 15.5840436,8.208 C17.2741825,8.40103871 18.9102369,8.92283679 20.4000436,9.744 C19.2308653,8.79227197 17.8729173,8.09966392 16.4160436,7.712 L16.6400436,7.456 C18.2778955,7.53614258 19.8503823,8.12320432 21.1400436,9.136 C22.6029226,12.0311447 23.3893577,15.2206516 23.4400436,18.464 C22.311484,20.0358997 20.4785261,20.9478861 18.5440436,20.9 Z" id="Shape"></path>
</g>
</g>
</g>
</g>
</svg>