<svg version="1.1" id="logo-remedy-2023" xmlns="http://www.w3.org/2000/svg" xmlns:xlink="http://www.w3.org/1999/xlink" x="0px" y="0px" viewBox="0 0 566.9 725.9" style="enable-background:new 0 0 566.9 725.9;" xml:space="preserve">
<style type="text/css">
	.st0{fill:#FFFFFF;}
</style>
<path class="st0" d="M93.7,725.9h71.1v-17.4h-49.2v-24.7h43.8v-17.4h-43.8v-23.7h49.2v-17.4H93.7V725.9z M457.5,675.6
	c0,5.1-0.5,9.7-1.4,13.7c-1,4-2.5,7.4-4.8,10.2c-5,6.3-12.8,9.5-23.4,9.5h-14v-66.6h14c5.6,0,10.4,0.7,14.5,2.2
	c4.1,1.5,7.2,3.9,9.5,7.3c2.3,3.4,3.8,6.8,4.5,10.4C457.2,665.8,457.5,670.2,457.5,675.6 M480.2,675.6c0-10.1-2-18.9-6-26.5
	c-4-7.6-9.8-13.4-17.4-17.6c-7.6-4.1-16.8-6.2-27.4-6.2h-37.3v100.6h37.3c10.4,0,19.5-2,27.1-6c7.6-4,13.5-9.8,17.6-17.3
	C478.2,695,480.2,686,480.2,675.6 M531.8,688.2v37.6h-5.6h-5.3H510v-37.6l-35.1-62.9H499l11.8,23.5c1.1,2,2.9,5.4,5.4,10.4
	c2,4,3.5,7,4.5,8.8h0.4c0,0,2.5-4.8,4.5-8.8c2.5-5,4.3-8.4,5.4-10.4l11.8-23.5h24.1L531.8,688.2z M57.8,657.1
	c0,4.5-0.9,7.9-2.7,10.1c-1.8,2.2-4.2,3.6-7,4.2c-2.9,0.6-6.7,0.9-11.3,0.9H21.9v-30h15c4.7,0,8.5,0.3,11.3,0.8
	c2.8,0.5,5.1,1.8,6.9,4C56.9,649.2,57.8,652.5,57.8,657.1 M73.6,677.6c4.1-4.7,6.1-11.6,6.1-20.5c0-9-2.1-15.8-6.2-20.4
	c-4.1-4.7-9.2-7.7-15.3-9.2c-6.1-1.4-13-2.2-20.9-2.2H0v100.6h21.9v-36.6h15.4c0.9,0,1.7,0,2.5-0.1l20.4,36.7h22.7L60,686.4
	C65.3,684.8,69.9,681.9,73.6,677.6 M268.8,725.9h20.2V625.3h-34.5l-12.7,48c-1.3,4.9-6.6,27.4-7.5,31.6h-0.3
	c-1.6-8.5-4.1-19.1-7.5-31.9l-12.7-47.7h-35v100.6h20.2v-57.2c0-1-0.1-5.4-0.3-13.2l-0.3-14.8h0.4c1,3.5,23,85.1,23,85.1h24
	c0,0,20.2-73.8,23.1-85.1h0.4c-0.1,5-0.3,10.1-0.4,15.1c-0.1,5.1-0.2,9.1-0.2,12.3V725.9z M306.9,625.3H378v17.4h-49.2v23.7h43.8
	v17.4h-43.8v24.7H378v17.4h-71.1V625.3z M539.1,0h5l5.9,15.4c1.1,3.1,2.9,8.9,2.9,8.9h0.1c0,0,1.8-5.8,2.9-8.9L561.7,0h5.2v28.3
	h-3.7V11.2c0-2.5,0.2-7.3,0.2-7.3h-0.1c0,0-1.1,4.3-2,6.5l-6.9,17.9h-3.1l-6.9-17.9c-0.8-2.2-2-6.5-2-6.5h-0.1c0,0,0.2,4.8,0.2,7.3
	v17.1h-3.5V0z M512.3,0h22.6v3.4h-9.4v24.9h-3.9V3.4h-9.3V0z M324,123.4v155.5c43.1,0,78.1-34.8,78.1-77.7
	C402,158.2,367.1,123.4,324,123.4 M215.5,123.4H134v155.5h81.6c43.1,0,78.1-34.8,78.1-77.7C293.6,158.2,258.7,123.4,215.5,123.4
	 M485.9,356.6v-35.4c-17.1,22.9-38.9,42.1-64.1,56l64.1,112.7v-67.7l81,142.4H388L324,451.9v112.6h-39.1l-92.3-162.2H134v162.2H0V0
	h215.5c39.9,0,77.1,11.6,108.4,31.5V0c66.3,0,125.1,31.8,162,81V45.6c45.2,36.9,74,92.9,74,155.6
	C559.9,263.8,531.1,319.7,485.9,356.6"></path>
</svg>