<svg width="174" height="37" viewBox="0 0 174 37" fill="none" xmlns="http://www.w3.org/2000/svg">
<g clip-path="url(#clip0_1629_1270)">
<path d="M157.202 0H164.85V36.2358H157.202V0Z" fill="#97AC9F"></path>
<path d="M166.353 0H174.001V36.2358H166.353V0Z" fill="#97AC9F"></path>
<path d="M18.9832 0H26.6311V30.205H31.1866V36.2358H18.9832V0Z" fill="#97AC9F"></path>
<path d="M11.3352 36.2358H18.4944L13.9389 0H4.55552L0 36.2358H7.15915L7.58999 30.205H10.9044L11.3352 36.2358ZM8.01317 24.2839L9.24664 7.03291L10.4801 24.2839H8.01317Z" fill="#97AC9F"></path>
<path d="M43.0107 36.2358H50.1698L45.6143 0H36.231L31.6744 36.2358H38.8335L39.2644 30.205H42.5788L43.0096 36.2358H43.0107ZM39.6886 24.2839L40.9221 7.03291L42.1556 24.2839H39.6886Z" fill="#97AC9F"></path>
<path d="M61.5597 0V20.1469L58.1972 0H50.6586V36.2358H57.0042V16.1337L60.3667 36.2358H67.9064V0H61.5597Z" fill="#97AC9F"></path>
<path d="M138.404 0H150.282V5.92118H146.051V15.1567H150.282V21.0779H146.051V30.205H150.282V36.2358H138.404V0Z" fill="#97AC9F"></path>
<path d="M151.903 0C151.424 0 151.007 0.389926 151.007 0.897049C151.007 1.40417 151.415 1.7941 151.903 1.7941C152.39 1.7941 152.798 1.39103 152.798 0.897049C152.798 0.40307 152.386 0 151.903 0ZM151.9 1.64952C151.487 1.64952 151.151 1.31217 151.151 0.894859C151.151 0.47755 151.494 0.144579 151.9 0.144579C152.307 0.144579 152.654 0.47755 152.654 0.894859C152.654 1.31217 152.316 1.64952 151.9 1.64952Z" fill="#97AC9F"></path>
<path d="M152.073 0.90591C152.144 0.882909 152.262 0.844574 152.262 0.659468C152.262 0.393311 152.03 0.393311 151.91 0.393311H151.566V1.39989H151.759V0.99682H151.934C152.005 0.99682 152.024 1.0253 152.038 1.08225C152.038 1.09649 152.072 1.35279 152.076 1.40099H152.29C152.261 1.35279 152.247 1.21588 152.237 1.13483C152.219 1.00668 152.209 0.916863 152.072 0.907005L152.073 0.90591ZM151.911 0.834716H151.756V0.554319H151.917C151.968 0.554319 152.063 0.554319 152.063 0.692327C152.063 0.744901 152.039 0.834716 151.911 0.834716Z" fill="#97AC9F"></path>
<path d="M111.881 36.2358H119.041L114.485 0H105.102L100.545 36.2358H107.704L108.135 30.205H111.45L111.88 36.2358H111.881ZM108.559 24.2839L109.793 7.03291L111.026 24.2839H108.559Z" fill="#97AC9F"></path>
<path d="M95.994 0L94.1766 20.1469L92.3592 0H88.9224H85.4855L83.6681 20.1469L81.8507 0H74.2695L78.8075 36.2358H87.105L88.9344 16.1337L90.7398 36.2358H99.0373L103.575 0H95.994Z" fill="#97AC9F"></path>
<path d="M137.916 0H130.377L127.177 16.7876V0H119.529V36.2358H127.177V19.4602L130.377 36.2358H137.916L133.579 18.1184L137.916 0Z" fill="#97AC9F"></path>
</g>
<defs>
<clipPath id="clip0_1629_1270">
<rect width="174" height="36.2358" fill="white"></rect>
</clipPath>
</defs>
</svg>