<svg version="1.1" id="Layer_1" xmlns="http://www.w3.org/2000/svg" xmlns:xlink="http://www.w3.org/1999/xlink" x="0px" y="0px" viewBox="0 0 815 815" style="enable-background:new 0 0 815 815;" xml:space="preserve">
<style type="text/css">
	.st0{fill-rule:evenodd;clip-rule:evenodd;}
</style>
<g>
<g>
<path class="st0" d="M384.6,296.7v-54.3c0-8.6-4-12.6-12.3-12.6h-13.5v79.6h13.5C380.6,309.3,384.6,305.3,384.6,296.7z"></path>
<g>
<polygon class="st0" points="341.2,490.3 333.9,508.9 348.5,508.9 			"></polygon>
<path class="st0" d="M606.1,125.9H208.9c-32.2,0-44.1,11.9-44.1,44.1v388.7c0,3.6,0.1,7,0.5,10.2c0.7,7,0.9,13.8,7.4,21.6
				c0.6,0.8,7.3,5.7,7.3,5.7c3.6,1.8,6,3.1,10.1,4.7l195.6,81.9c10.2,4.7,14.4,6.5,21.8,6.3v0c0,0,0,0,0,0s0,0,0,0v0
				c7.4,0.1,11.6-1.7,21.8-6.3l195.6-81.9c4.1-1.6,6.5-2.9,10.1-4.7c0,0,6.7-5,7.3-5.7c6.5-7.8,6.7-14.6,7.4-21.6
				c0.3-3.1,0.5-6.5,0.5-10.2V170C650.2,137.8,638.3,125.9,606.1,125.9z M432.3,200.7h32.9v216h-32.9V200.7z M434.5,469.3h19.1v65.3
				h-18v-37.5l-16.7,25.6h-0.4l-16.6-25.4v37.3h-17.7v-65.3h19.1l15.6,25.3L434.5,469.3z M326,200.7h51.6
				c26.7,0,39.9,13.3,39.9,40.1v57.4c0,26.8-13.2,40.1-39.9,40.1h-18.7v78.4H326V200.7z M236.4,200.7h73.1v29.9h-40.2v61.1H308v29.9
				h-38.7v65.1h40.8v29.9h-73.7V200.7z M299.2,525.8c-6.9,5.7-16.5,10.1-28.4,10.1c-20.4,0-35.6-14-35.6-33.8v-0.2
				c0-19,14.9-34,35.2-34c11.5,0,19.6,3.5,26.5,9.5l-10.6,12.8c-4.7-3.9-9.3-6.2-15.8-6.2c-9.4,0-16.7,7.9-16.7,17.9v0.2
				c0,10.5,7.4,18.1,17.7,18.1c4.4,0,7.7-0.9,10.5-2.7v-7.9h-12.9v-13.3h30.1V525.8z M332.6,468.8h17.5l27.8,65.8h-19.4l-4.8-11.7
				h-25.2l-4.7,11.7h-19L332.6,468.8z M406,643.6l-92.1-31.7H502L406,643.6z M518.6,534.6h-53v-65.3h52.6v15.4h-34.6v9.9h31.4v14.3
				h-31.4v10.4h35.1V534.6z M482.5,378.4V239c0-26.8,13.2-40.1,39.9-40.1h16c26.7,0,39.6,13,39.6,39.8v44.1h-32.2v-42.3
				c0-8.6-4-12.6-12.3-12.6h-5.5c-8.6,0-12.6,4-12.6,12.6v136.4c0,8.6,4,12.6,12.6,12.6h6.1c8.3,0,12.3-4,12.3-12.6v-48.7h32.2v50.3
				c0,26.8-13.2,40.1-39.9,40.1h-16.3C495.7,418.5,482.5,405.3,482.5,378.4z M580.3,514.5c0,13.3-10.5,21.3-26.4,21.3
				c-11.6,0-22.6-3.6-30.6-10.8l10.1-12c6.4,5.1,13.6,7.8,21.2,7.8c4.9,0,7.5-1.7,7.5-4.5V516c0-2.7-2.1-4.2-11-6.3
				c-13.9-3.2-24.6-7.1-24.6-20.5v-0.2c0-12.1,9.6-20.9,25.3-20.9c11.1,0,19.8,3,26.9,8.7l-9.1,12.8c-6-4.2-12.5-6.4-18.3-6.4
				c-4.4,0-6.5,1.9-6.5,4.2v0.2c0,3,2.2,4.3,11.3,6.3c15,3.3,24.4,8.1,24.4,20.4V514.5z"></path>
</g>
</g>
</g>
</svg>